<svg version="1.2" xmlns="http://www.w3.org/2000/svg" viewBox="0 0 523 119" width="523" height="119"><style>.a{fill:none;stroke:#fff;stroke-linecap:round;stroke-linejoin:round;stroke-width:7}.b{fill:#fff}</style><path class="a" d="m27.8 46.8q-0.1-0.1-0.2-0.1c-1.3 0.2-13.4 2.3-17.9 12.6-4.4 10 0.7 21.5 10.7 25.7 6.7 2.8 15.7 2.6 25.8-8.6q0.1-0.1 0.1-0.2z"/><path class="a" d="m42.7 48.2l8.7 14.1c0.1 0.1 0.2 0.2 0.2 0.1 2.2-1.4 20.6-13.3 33.9-11.2 0.1 0.1 0.2-0.1 0.2-0.2l-19.6-30.9c-0.1-0.1-0.3-0.1-0.3 0-1.2 2.6-9.2 20-23.1 27.9-0.1 0-0.1 0.1 0 0.2z"/><path class="a" d="m53.1 76c-2.5 1.6-5.9 0.9-7.5-1.7l-16.4-25.9c-1.6-2.5-0.9-5.9 1.7-7.5 2.5-1.7 5.9-0.9 7.5 1.7l16.4 25.9c1.7 2.5 0.9 5.9-1.7 7.5z"/><path class="b" d="m134.1 83.8q-8.2 0-14.7-3.7-6.4-3.8-10.1-10.2-3.6-6.5-3.6-14.6 0-8.3 3.6-14.8 3.6-6.5 9.8-10.2 6.3-3.6 14.5-3.6 6 0 11.1 2.3 5 2.3 9 6.9 1.5 1.7 1.1 3.4-0.4 1.8-2.3 3.1-1.4 1.1-3.2 0.7-1.7-0.4-3.2-1.8-5-5.4-12.5-5.4-5.3 0.1-9.3 2.5-4 2.4-6.3 6.7-2.2 4.3-2.2 10.2-0.1 5.6 2.3 9.9 2.3 4.3 6.4 6.8 4.1 2.5 9.6 2.5 3.6 0.1 6.3-0.8 2.7-0.9 5-2.8 1.6-1.3 3.4-1.5 1.8-0.1 3.1 1 1.7 1.5 2 3.3 0.2 1.8-1.3 3.2-7.4 6.9-18.5 6.9z"/><path fill-rule="evenodd" class="b" d="m190.1 83.8q-7.5 0-13.5-3.7-6-3.8-9.4-10.2-3.5-6.5-3.5-14.6 0-8.1 3.8-14.6 3.8-6.5 10.2-10.3 6.4-3.7 14.5-3.7 8 0 14.4 3.7 6.4 3.8 10.1 10.3 3.8 6.5 3.8 14.6v23q0 2.2-1.5 3.7-1.5 1.5-3.8 1.5-2.2 0-3.7-1.5-1.5-1.5-1.5-3.7v-3.9q-2.7 3.4-6.4 5.7-6 3.7-13.5 3.7zm2.1-9.2q5.2 0 9.3-2.6 4.1-2.5 6.5-6.9 2.4-4.3 2.4-9.8 0-5.6-2.4-9.9-2.3-4.4-6.5-6.9-4.1-2.5-9.3-2.5-5.2 0-9.4 2.5-4.1 2.5-6.5 6.9-2.5 4.3-2.5 9.9 0 5.5 2.5 9.8 2.4 4.4 6.5 6.9 4.2 2.6 9.4 2.6z"/><path class="b" d="m237.5 83.4q-2.5 0-3.8-1.3-1.4-1.3-1.4-3.8v-46.1q0-2.4 1.4-3.8 1.3-1.3 3.8-1.3 2.5 0 3.8 1.3 1.3 1.3 1.3 3.8v46.1q0 2.4-1.3 3.8-1.3 1.3-3.8 1.3zm-0.2-35.2q0-6.2 3.1-11.1 3-4.9 8.2-7.7 5.1-2.9 11.3-2.9 6.2 0 9.2 2 3.1 2 2.3 4.8-0.3 1.4-1.1 2.2-0.9 0.8-2.1 1-1.1 0.2-2.4-0.1-6.6-1.4-11.9-0.2-5.2 1.1-8.3 4.2-3 3.1-3 7.8z"/><path class="b" d="m299 83.8q-7.2 0-13.3-2.2-6.1-2.2-9.5-5.6-1.6-1.6-1.3-3.8 0.2-2.1 2-3.4 2.1-1.7 4.1-1.4 2 0.3 3.4 1.8 1.8 2 5.6 3.6 3.9 1.7 8.6 1.7 6 0.1 9.1-1.9 3.2-2 3.3-5.1 0.1-3-3-5.3-3-2.3-11-3.7-10.4-2.1-15.1-6.2-4.7-4.1-4.7-10.1 0-5.2 3.1-8.7 3.1-3.4 7.9-5.1 4.9-1.7 10.1-1.7 6.8 0 12.1 2.1 5.2 2.2 8.3 6 1.4 1.6 1.3 3.5-0.1 1.7-1.7 3-1.7 1.1-3.9 0.7-2.3-0.4-3.8-1.8-2.6-2.5-5.6-3.4-3-1-6.9-1-4.5 0-7.7 1.6-3.1 1.5-3.1 4.5 0 1.9 1 3.4 1 1.4 3.8 2.6 2.9 1.2 8.5 2.4 7.7 1.5 12.2 3.9 4.5 2.3 6.4 5.5 2 3.1 2 7.2 0 4.8-2.5 8.6-2.6 3.8-7.5 6-4.9 2.3-12.2 2.3z"/><path class="b" d="m335.9 62.9q-2.3 0-3.8-1.5-1.5-1.5-1.5-3.7v-49.4q0-2.4 1.5-3.9 1.5-1.4 3.8-1.4 2.4 0 3.8 1.4 1.4 1.5 1.4 3.9v49.4q0 2.2-1.4 3.7-1.4 1.5-3.8 1.5zm0 20.6q-2.3 0-3.8-1.5-1.5-1.5-1.5-3.7v-46q0-2.3 1.5-3.8 1.5-1.4 3.8-1.4 2.4 0 3.8 1.4 1.4 1.5 1.4 3.8v46q0 2.2-1.4 3.7-1.4 1.5-3.8 1.5zm42.3 0q-2.3 0-3.8-1.5-1.5-1.5-1.4-3.7v-25.4q-0.1-5.8-2.2-9.6-2.2-3.7-5.8-5.5-3.7-1.8-8.4-1.8-4.3 0-7.8 1.8-3.5 1.7-5.6 4.7-2.1 2.9-2.1 6.7h-6.5q0-6.5 3.2-11.6 3.1-5.1 8.6-8 5.4-3 12.2-3 7.1 0 12.8 3 5.6 3 8.8 8.9 3.2 5.9 3.2 14.4v25.3q0 2.3-1.4 3.8-1.5 1.5-3.8 1.5z"/><path fill-rule="evenodd" class="b" d="m422.7 83.8q-8.4 0-14.7-3.6-6.4-3.7-10.1-10.1-3.6-6.5-3.6-14.8 0-8.4 3.6-14.9 3.7-6.4 10.1-10.1 6.3-3.6 14.7-3.6 8.2 0 14.6 3.6 6.4 3.7 10 10.1 3.7 6.5 3.7 14.9 0 8.4-3.6 14.8-3.6 6.4-10 10.1-6.4 3.6-14.7 3.6zm0-9.2q5.3 0 9.5-2.5 4.1-2.5 6.4-6.8 2.3-4.3 2.3-10 0-5.7-2.3-10-2.3-4.4-6.4-6.9-4.2-2.5-9.5-2.5-5.4 0-9.5 2.5-4.1 2.5-6.5 6.9-2.3 4.3-2.4 10 0.1 5.7 2.4 10 2.4 4.3 6.5 6.8 4.1 2.5 9.5 2.5z"/><path fill-rule="evenodd" class="b" d="m468.1 107.5q-2.3 0-3.8-1.5-1.5-1.5-1.5-3.8v-46.9q0.1-8.1 3.8-14.6 3.7-6.5 10.1-10.3 6.4-3.7 14.4-3.7 8.2 0 14.6 3.7 6.3 3.8 10.1 10.3 3.8 6.5 3.8 14.6 0 8.1-3.5 14.6-3.4 6.4-9.4 10.2-6 3.7-13.5 3.7-6.1 0-11.2-2.5-5.1-2.5-8.7-6.8v27.8q0 2.2-1.4 3.7-1.4 1.5-3.8 1.5zm23-32.9q5.3 0 9.4-2.6 4.1-2.5 6.5-6.9 2.5-4.3 2.5-9.8 0-5.6-2.5-9.9-2.4-4.4-6.5-6.9-4.1-2.5-9.4-2.5-5.1 0-9.3 2.5-4.1 2.5-6.5 6.9-2.4 4.3-2.4 9.9 0 5.5 2.4 9.8 2.3 4.4 6.5 6.9 4.2 2.6 9.3 2.6z"/></svg>